<svg xmlns="http://www.w3.org/2000/svg" xmlns:xlink="http://www.w3.org/1999/xlink" viewBox="0 0 589.1 201.96"><defs><style>.cls-1{fill:none;}.cls-2{fill:#00a651;}.cls-3{fill:#ef5ba1;}.cls-4{fill:#2e3192;}.cls-5{fill:#ed1c24;}.cls-5,.cls-6{stroke:#000;stroke-miterlimit:10;}.cls-6{fill:#fff;}.cls-7{clip-path:url(#clip-path);}.cls-10,.cls-11,.cls-12,.cls-8,.cls-9{isolation:isolate;}.cls-10,.cls-9{font-size:50px;}.cls-9{font-family:Apple-Chancery, Apple Chancery;}.cls-10,.cls-11{font-family:ArialMT, Arial;}.cls-11,.cls-12{font-size:20px;}.cls-11{letter-spacing:1.55em;}.cls-12{font-family:Noteworthy-Bold, Noteworthy;font-weight:700;}.cls-13{letter-spacing:-0.02em;}.cls-14{letter-spacing:0.03em;}.cls-15{letter-spacing:-0.07em;}.cls-16{letter-spacing:0.02em;}.cls-17{letter-spacing:0.02em;}.cls-18{letter-spacing:-0.04em;}.cls-19{letter-spacing:0em;}.cls-20{letter-spacing:-0.05em;}.cls-21{letter-spacing:-0.03em;}</style><clipPath id="clip-path"><rect class="cls-1" x="37.65" y="73.12" width="126.66" height="55.72"/></clipPath><symbol id="New_Symbol" data-name="New Symbol" viewBox="0 0 236.84 77.1"><path class="cls-2" d="M236.84,38.55S197.51,77.1,149,77.1,61.14,59.84,61.14,38.55,100.47,0,149,0,236.84,38.55,236.84,38.55Z"/><path class="cls-3" d="M76,36.42S51.78,47.43,30.79,39,0,5.74,0,5.74s24.23-11,45.22-2.53S76,36.42,76,36.42Z"/><path class="cls-3" d="M0,67.25s24.23,11,45.22,2.53S76,36.57,76,36.57,51.78,25.56,30.79,34,0,67.25,0,67.25Z"/><circle class="cls-4" cx="200.06" cy="30.83" r="4.63"/></symbol><symbol id="fishy" data-name="fishy" viewBox="0 0 589.1 201.96"><circle class="cls-5" cx="100.98" cy="100.98" r="100.48"/><circle class="cls-6" cx="100.98" cy="100.98" r="87"/><g class="cls-7"><use width="236.84" height="77.1" transform="translate(37.65 73.96) scale(0.53 0.72)" xlink:href="#New_Symbol"/></g><g class="cls-8"><text class="cls-9" transform="translate(211.22 100.98)">A Fishy Business</text><text class="cls-10" transform="translate(575.21 100.98)"> </text><text class="cls-11" transform="translate(211.22 139.38)"> </text><text class="cls-12" transform="translate(247.22 139.38)"><tspan class="cls-13">b</tspan><tspan x="9.85" y="0">y N</tspan><tspan class="cls-14" x="38.12" y="0">O</tspan><tspan x="54.45" y="0">LA Ce</tspan><tspan class="cls-15" x="108.75" y="0">r</tspan><tspan class="cls-16" x="115.4" y="0">a</tspan><tspan class="cls-17" x="126.47" y="0">m</tspan><tspan class="cls-18" x="141.2" y="0">i</tspan><tspan class="cls-19" x="144.47" y="0">st Su</tspan><tspan class="cls-13" x="187.75" y="0">z</tspan><tspan x="196.95" y="0">y St</tspan><tspan class="cls-20" x="231.42" y="0">i</tspan><tspan class="cls-21" x="234.47" y="0">t</tspan><tspan class="cls-19" x="241.3" y="0">ch</tspan></text></g></symbol></defs><g id="Layer_2" data-name="Layer 2"><g id="Layer_1-2" data-name="Layer 1"><use width="589.1" height="201.96" xlink:href="#fishy"/></g></g></svg>