<?xml version="1.0" encoding="utf-8"?>
<!-- Generator: Adobe Illustrator 25.0.0, SVG Export Plug-In . SVG Version: 6.00 Build 0)  -->
<svg version="1.1" id="Layer_1" xmlns="http://www.w3.org/2000/svg" xmlns:xlink="http://www.w3.org/1999/xlink" x="0px" y="0px"
	 viewBox="0 0 595.3 841.9" style="enable-background:new 0 0 595.3 841.9;" xml:space="preserve">
<style type="text/css">
	.st0{fill:#00A651;}
	.st1{fill:#EF5BA1;}
	.st2{fill:#2E3192;}
	.st3{fill:#FFF56D;stroke:#000000;stroke-miterlimit:10;}
	.st4{fill:none;}
	.st5{fill:#ED1C24;stroke:#000000;stroke-miterlimit:10;}
	.st6{fill:#FFFFFF;stroke:#000000;stroke-miterlimit:10;}
	.st7{clip-path:url(#SVGID_2_);}
	.st8{clip-path:url(#SVGID_4_);}
	.st9{font-family:'Apple-Chancery';}
	.st10{font-size:22.1893px;}
	.st11{font-family:'ArialMT';}
	.st12{font-size:24.3243px;}
	.st13{font-size:9.7297px;}
	.st14{letter-spacing:13.9;}
	.st15{font-family:'Noteworthy-Bold';}
	.st16{font-family:'Arial-Black';}
	.st17{font-size:8.7568px;}
</style>
<symbol  id="New_Symbol" viewBox="-118.4 -38.5 236.8 77">
	<path class="st0" d="M118.4,0c0,0-39.3-38.5-87.8-38.5S-57.3-21.3-57.3,0S-18,38.5,30.5,38.5S118.4,0,118.4,0z"/>
	<path class="st1" d="M-42.4,2.1c0,0-24.2-11-45.2-2.5s-30.8,33.2-30.8,33.2s24.2,11,45.2,2.5S-42.4,2.1-42.4,2.1z"/>
	<path class="st1" d="M-118.4-28.7c0,0,24.2-11,45.2-2.5S-42.4,2-42.4,2s-24.2,11-45.2,2.5S-118.4-28.7-118.4-28.7z"/>
	<circle class="st2" cx="81.6" cy="7.7" r="4.6"/>
</symbol>
<rect y="319.9" class="st3" width="270" height="162"/>
<rect x="1.4" y="336.9" class="st4" width="267.2" height="98.3"/>
<g>
	<ellipse class="st5" cx="56.7" cy="384.1" rx="36.1" ry="38"/>
	<ellipse class="st6" cx="56.7" cy="384.1" rx="31.3" ry="32.9"/>
	<g>
		<g>
			<g>
				<defs>
					<rect id="SVGID_1_" x="34" y="373.6" width="45.5" height="21.1"/>
				</defs>
				<clipPath id="SVGID_2_">
					<use xlink:href="#SVGID_1_"  style="overflow:visible;"/>
				</clipPath>
				<g class="st7">
					<g>
						<g>
							<defs>
								<rect id="SVGID_3_" x="34" y="373.9" width="45.5" height="21.1"/>
							</defs>
							<clipPath id="SVGID_4_">
								<use xlink:href="#SVGID_3_"  style="overflow:visible;"/>
							</clipPath>
							<g class="st8">
								<g>
									<defs>
										<rect id="SVGID_5_" x="34" y="374.2" width="45.5" height="21"/>
									</defs>
									<clipPath id="SVGID_6_">
										<use xlink:href="#SVGID_5_"  style="overflow:visible;"/>
									</clipPath>
									<g transform="matrix(1 0 0 1 -3.814697e-06 0)" style="clip-path:url(#SVGID_6_);">
										
											<use xlink:href="#New_Symbol"  width="236.8" height="77" id="XMLID_2_" x="-118.4" y="-38.5" transform="matrix(0.1921 0 0 -0.2731 56.7172 385.0771)" style="overflow:visible;"/>
									</g>
								</g>
							</g>
						</g>
					</g>
				</g>
			</g>
		</g>
	</g>
</g>
<text transform="matrix(0.9188 0 0 1 97.2285 384.1094)" class="st9 st10">A Fishy Business</text>
<text transform="matrix(0.9323 0 0 1 262.3174 386.0186)" class="st11 st12"> </text>
<text transform="matrix(0.9323 0 0 1 97.228 404.7002)" class="st11 st13 st14"> </text>
<text transform="matrix(0.9323 0 0 1 98.4311 404.7002)" class="st15 st13">by NOLA Ceramist Suzy Friedrichs</text>
<text transform="matrix(0.9323 0 0 1 56.707 443.9199)" class="st16 st17">AFISHYBUSINESSNOLA@GMAIL.COM</text>
<text transform="matrix(0.9323 0 0 1 56.707 462.1357)" class="st16 st17">SUZY FRIEDRICHS</text>
<text transform="matrix(0.9323 0 0 1 163.3232 462.1348)" class="st16 st17">985-373-5551</text>
</svg>
